#!OML:ASF F:\VICON\USERDATA\INSTALL\rory3\rory3.ASF
:FULLY-SPECIFIED
:DEGREES
726
root -0.937163 16.616 22.9097 -152.249 -21.441 -186.39
lowerback -24.9535 -3.74348 -5.63355
upperback -7.60822 -4.89817 -2.17813
thorax 5.58725 -3.05935 -0.655979
lowerneck -8.51236 -0.267661 -3.76089
upperneck -16.7394 -2.12278 -0.61357
head -4.01315 -1.55031 0.51248
rclavicle 1.99033e-014 9.54166e-015
rhumerus -53.6877 -23.1049 -44.4586
rradius 37.5485
rwrist -2.35831
rhand -23.1809 34.7069
rfingers 7.12502
rthumb 3.26842 4.75224
lclavicle 1.99033e-014 9.54166e-015
lhumerus -49.7825 4.66712 55.8947
lradius 59.598
lwrist -39.8762
lhand 3.65612 6.19716
lfingers 7.12502
lthumb 29.0873 33.9459
rfemur 106.166 -175.308 -171.382
rtibia 42.978
rfoot -45.8561 -26.9278
rtoes 60.0999
lfemur -32.0932 -2.03424 -35.467
ltibia 33.0249
lfoot -35.4028 23.1144
ltoes -7.14193
727
root -0.930026 16.6171 22.9131 -152.232 -21.6478 -186.446
lowerback -24.7004 -3.73565 -5.62925
upperback -7.55803 -4.88102 -2.26848
thorax 5.50929 -3.04366 -0.733682
lowerneck -8.00121 -0.163026 -3.50253
upperneck -16.3191 -1.86899 -0.59252
head -3.95295 -1.39477 0.471173
rclavicle 7.278e-014 7.55382e-014
rhumerus -53.1162 -23.2699 -46.3986
rradius 36.9001
rwrist -1.5235
rhand -22.5713 34.5141
rfingers 7.12502
rthumb 3.85708 4.56926
lclavicle 7.278e-014 7.55382e-014
lhumerus -49.493 4.36375 57.8264
lradius 60.4759
lwrist -39.1788
lhand 7.17952 6.09882
lfingers 7.12502
lthumb 32.4466 33.2142
rfemur 106.166 -174.998 -171.23
rtibia 43.0016
rfoot -45.5613 -27.2967
rtoes 60.0077
lfemur -32.1137 -1.95893 -35.4765
ltibia 33.0476
lfoot -35.3129 23.4175
ltoes -8.61784
728
root -0.921312 16.6148 22.913 -152.272 -21.813 -186.661
lowerback -24.3143 -3.76814 -5.82896
upperback -7.48972 -4.87131 -2.38378
thorax 5.39557 -3.02924 -0.716782
lowerneck -7.41771 -0.0224429 -3.07435
upperneck -15.966 -1.61193 -0.781133
head -3.93352 -1.24197 0.332208
rclavicle -1.19395e-014 -3.22031e-014
rhumerus -52.4023 -23.4585 -48.3482
rradius 36.1318
rwrist -0.390504
rhand -22.3284 33.8951
rfingers 7.12502
rthumb 4.09167 3.95461
lclavicle -1.19395e-014 -3.22031e-014
lhumerus -49.0703 4.08437 59.9392
lradius 61.3593
lwrist -37.994
lhand 10.8786 7.26127
lfingers 7.12502
lthumb 35.9592 33.5878
rfemur 106.292 -174.666 -171.237
rtibia 43.0315
rfoot -45.4802 -27.0661
rtoes 60.0919
lfemur -31.9658 -1.87299 -35.6345
ltibia 33.065
lfoot -34.8779 22.9802
ltoes -8.23023
729
root -0.911545 16.6154 22.9133 -152.353 -22.078 -186.628
lowerback -24.1469 -3.71215 -5.84798
upperback -7.19462 -4.71354 -2.29972
thorax 5.64476 -2.92166 -0.572258
lowerneck -7.43465 -0.0802732 -3.08848
upperneck -15.5116 -1.639 -1.04931
head -3.76718 -1.22627 0.240463
rclavicle 3.19298e-014 4.17448e-014
rhumerus -51.3932 -23.8127 -50.073
rradius 35.6675
rwrist 0.365968
rhand -21.7743 32.6068
rfingers 7.12502
rthumb 4.62672 2.67735
lclavicle 3.19298e-014 4.17448e-014
lhumerus -48.0275 3.99342 62.4339
lradius 61.9651
lwrist -36.9148
lhand 14.2037 8.83758
lfingers 7.12502
lthumb 39.1016 34.3284
rfemur 106.374 -174.386 -170.971
rtibia 43.0573
rfoot -44.919 -27.6838
rtoes 59.9445
lfemur -31.8783 -1.91106 -35.4814
ltibia 33.0792
lfoot -34.6225 22.4749
ltoes -7.26732
730
root -0.901445 16.6199 22.9155 -152.427 -22.3452 -186.491
lowerback -24.025 -3.60587 -5.79019
upperback -6.97149 -4.52674 -2.22826
thorax 5.82874 -2.80704 -0.474902
lowerneck -7.2773 -0.148342 -3.04273
upperneck -15.012 -1.65369 -1.22967
head -3.61657 -1.20166 0.168968
rclavicle 6.36359e-014 2.5842e-014
rhumerus -50.5402 -23.946 -51.8035
rradius 35.3115
rwrist 1.00421
rhand -21.0811 31.357
rfingers 7.12502
rthumb 5.29606 1.44313
lclavicle 6.36359e-014 2.5842e-014
lhumerus -47.1676 3.53376 64.8393
lradius 62.6062
lwrist -35.7097
lhand 16.803 10.2497
lfingers 7.12502
lthumb 41.546 34.99
rfemur 106.421 -174.15 -170.604
rtibia 43.0606
rfoot -44.2571 -28.5561
rtoes 59.6973
lfemur -31.8894 -1.88451 -35.2502
ltibia 33.121
lfoot -34.529 22.3386
ltoes -7.36931
731
root -0.894436 16.6222 22.9139 -152.47 -22.522 -186.427
lowerback -23.7838 -3.47536 -5.69056
upperback -7.00318 -4.39046 -2.3043
thorax 5.65628 -2.73714 -0.553229
lowerneck -6.60129 -0.0659336 -2.9703
upperneck -14.5267 -1.40686 -1.12056
head -3.56465 -1.0358 0.189491
rclavicle -9.53048e-014 -5.64548e-014
rhumerus -49.9746 -23.9022 -53.4332
rradius 34.6567
rwrist 1.89645
rhand -19.7217 31.117
rfingers 7.12502
rthumb 6.60848 1.2401
lclavicle -9.53048e-014 -5.64548e-014
lhumerus -46.9427 2.75737 66.9255
lradius 63.3735
lwrist -34.3588
lhand 18.8111 11.6825
lfingers 7.12502
lthumb 43.4259 35.7762
rfemur 106.477 -173.965 -170.335
rtibia 43.0469
rfoot -43.9144 -28.8963
rtoes 59.5897
lfemur -31.9036 -1.84551 -35.1253
ltibia 33.201
lfoot -34.449 22.1791
ltoes -7.36447
732
root -0.885674 16.6283 22.9096 -152.579 -22.7281 -186.293
lowerback -23.4982 -3.39301 -5.54834
upperback -6.97389 -4.31281 -2.29247
thorax 5.53675 -2.68793 -0.577874
lowerneck -6.52669 0.0424983 -2.98176
upperneck -13.685 -1.10665 -1.04759
head -3.2814 -0.850201 0.205127
rclavicle -1.94964e-014 8.34896e-015
rhumerus -49.0358 -23.8799 -55.0583
rradius 33.696
rwrist 2.77766
rhand -18.2044 30.8794
rfingers 7.12502
rthumb 8.07304 1.0536
lclavicle -1.94964e-014 8.34896e-015
lhumerus -46.5999 2.32733 68.8807
lradius 63.8884
lwrist -33.2337
lhand 20.3641 12.7837
lfingers 7.12502
lthumb 44.8741 36.3327
rfemur 106.573 -173.802 -169.994
rtibia 43.0423
rfoot -43.4345 -29.7288
rtoes 59.2676
lfemur -31.8641 -2.04148 -34.8371
ltibia 33.2609
lfoot -34.4338 22.3616
ltoes -7.42429
733
root -0.875643 16.6312 22.9076 -152.611 -22.9421 -186.204
lowerback -23.3726 -3.37265 -5.51101
upperback -6.67942 -4.22188 -2.19559
thorax 5.80274 -2.61699 -0.47388
lowerneck -7.18173 0.101818 -2.95129
upperneck -12.9217 -0.954773 -1.24419
head -2.90245 -0.766348 0.126407
rclavicle 6.91025e-014 -1.74931e-014
rhumerus -47.554 -24.211 -56.592
rradius 32.804
rwrist 3.74149
rhand -16.5178 30.0247
rfingers 7.12502
rthumb 9.70061 0.268104
lclavicle 6.91025e-014 -1.74931e-014
lhumerus -45.6243 2.27225 70.9063
lradius 64.1794
lwrist -32.5102
lhand 21.5775 13.543
lfingers 7.12502
lthumb 46.0017 36.6368
rfemur 106.558 -173.585 -169.694
rtibia 43.0697
rfoot -42.6353 -30.8528
rtoes 58.8218
lfemur -31.8564 -2.40792 -34.5577
ltibia 33.2664
lfoot -34.5821 22.4898
ltoes -7.19771
734
root -0.868894 16.6288 22.9077 -152.506 -22.9603 -186.395
lowerback -23.1459 -3.36221 -5.66424
upperback -6.5537 -4.15082 -2.23455
thorax 5.83002 -2.57188 -0.400055
lowerneck -7.38094 0.274067 -2.6813
upperneck -12.3838 -0.687092 -1.54555
head -2.68618 -0.625468 -0.0202515
rclavicle 1.91889e-014 3.89618e-014
rhumerus -46.2726 -24.1575 -58.1756
rradius 32.0688
rwrist 4.56686
rhand -14.5643 28.9621
rfingers 7.12502
rthumb 11.5849 -0.697736
lclavicle 1.91889e-014 3.89618e-014
lhumerus -44.9595 2.03583 72.7981
lradius 64.5676
lwrist -31.8398
lhand 22.5415 14.4671
lfingers 7.12502
lthumb 46.8949 37.1795
rfemur 106.432 -173.363 -169.743
rtibia 43.1332
rfoot -41.6436 -32.0691
rtoes 58.3927
lfemur -31.8558 -2.59671 -34.6831
ltibia 33.242
lfoot -34.6789 22.5117
ltoes -7.25182
735
root -0.863468 16.6303 22.9031 -152.505 -22.9841 -186.523
lowerback -22.8808 -3.30098 -5.76043
upperback -6.53471 -4.05356 -2.32983
thorax 5.71082 -2.52067 -0.403953
lowerneck -7.05694 0.436784 -2.30935
upperneck -11.8601 -0.409822 -1.75838
head -2.56506 -0.467246 -0.152368
rclavicle 6.16978e-014 4.8901e-014
rhumerus -45.3007 -23.876 -59.8322
rradius 31.3066
rwrist 4.85146
rhand -12.5333 28.2302
rfingers 7.12502
rthumb 13.543 -1.30936
lclavicle 6.16978e-014 4.8901e-014
lhumerus -44.6965 1.49316 74.5484
lradius 65.1695
lwrist -31.2563
lhand 23.2501 15.4089
lfingers 7.12502
lthumb 47.5499 37.829
rfemur 106.424 -173.182 -169.74
rtibia 43.1834
rfoot -40.6919 -33.2066
rtoes 57.8849
lfemur -31.7703 -2.55999 -34.7848
ltibia 33.2454
lfoot -34.7211 22.4395
ltoes -7.73128
